<svg width="545" height="363" viewBox="0 0 545 363" fill="none" xmlns="http://www.w3.org/2000/svg">
<path d="M334.572 28.314C334.572 28.314 274.52 6.98416 215.573 40.9464C156.626 74.9087 126.92 142.34 101.341 196.347C75.7623 250.354 90.4991 305.29 135.494 330.345C180.489 355.399 211.068 318.467 274.222 316.667C337.377 314.866 354.323 323.883 406.708 288.258C459.093 252.634 468.555 168.468 427.236 106.228C385.918 43.9884 334.572 28.314 334.572 28.314Z" fill="#85CFF9"/>
<path opacity="0.7" d="M334.572 28.314C334.572 28.314 274.52 6.98416 215.573 40.9464C156.626 74.9087 126.92 142.34 101.341 196.347C75.7623 250.354 90.4991 305.29 135.494 330.345C180.489 355.399 211.068 318.467 274.222 316.667C337.377 314.866 354.323 323.883 406.708 288.258C459.093 252.634 468.555 168.468 427.236 106.228C385.918 43.9884 334.572 28.314 334.572 28.314Z" fill="white"/>
<path d="M165.782 163.851C168.172 163.285 172.503 159.88 172.511 159.88C172.518 159.88 169.393 157.702 169.183 157.593C166.697 156.301 161.131 155.262 158.9 157.462C158.539 157.838 158.261 158.285 158.084 158.775C157.908 159.265 157.837 159.787 157.876 160.306C157.915 160.826 158.063 161.331 158.311 161.789C158.559 162.247 158.901 162.648 159.314 162.965C161.022 164.381 163.747 164.33 165.782 163.851Z" fill="#85CFF9"/>
<path d="M176.892 175.452C178.963 174.32 182.037 170.232 182.277 169.906C184.613 171.668 187.065 173.271 189.616 174.705C191.07 175.554 192.618 176.36 194.151 177.144C193.424 176.89 192.697 176.665 192.625 176.643C189.885 176.055 184.246 176.52 182.669 179.228C182.42 179.685 182.27 180.191 182.229 180.71C182.189 181.23 182.258 181.752 182.433 182.244C182.608 182.735 182.884 183.184 183.244 183.561C183.604 183.938 184.04 184.235 184.522 184.433C186.543 185.34 189.166 184.578 191.004 183.576C192.843 182.574 195.553 179.126 196.258 178.204L198.024 179.097C200.865 180.505 203.706 181.899 206.453 183.351C207.42 183.867 208.35 184.404 209.287 184.941C208.619 184.716 208.052 184.527 207.965 184.513C205.225 183.918 199.586 184.382 198.017 187.097C197.767 187.555 197.618 188.059 197.577 188.579C197.536 189.098 197.605 189.62 197.78 190.11C197.955 190.601 198.232 191.049 198.592 191.426C198.952 191.802 199.387 192.099 199.87 192.296C201.89 193.21 204.506 192.441 206.344 191.439C208.183 190.437 210.632 187.322 211.475 186.233C212.412 186.814 213.357 187.388 214.243 187.998C214.839 188.419 215.449 188.789 216.023 189.246L217.738 190.568C218.807 191.446 219.918 192.346 220.921 193.225C221.648 193.835 222.295 194.43 222.97 195.025C222.011 194.503 220.115 193.522 219.947 193.457C217.331 192.455 211.685 192.063 209.723 194.51C209.408 194.924 209.183 195.401 209.064 195.908C208.945 196.415 208.934 196.941 209.032 197.453C209.13 197.965 209.335 198.45 209.633 198.877C209.931 199.304 210.316 199.664 210.762 199.933C212.623 201.138 215.326 200.775 217.302 200.064C219.482 199.28 222.999 195.86 223.435 195.425C224.547 196.419 225.615 197.385 226.611 198.329C229.292 200.833 231.545 203.084 233.311 204.906L234.982 203.657C233.129 201.821 230.738 199.519 227.868 196.956C226.749 195.947 225.528 194.895 224.235 193.82C225.055 192.471 225.796 191.075 226.451 189.638C228.784 190.059 233.296 189.217 233.878 189.101C234.256 190.553 234.604 191.94 234.924 193.268C235.752 196.731 236.377 199.802 236.842 202.234L238.659 200.87C238.158 198.583 237.533 195.86 236.733 192.818C236.348 191.366 235.92 189.805 235.455 188.215C236 187.961 240.454 185.841 241.951 184.085C243.303 182.495 244.589 180.084 244.131 177.928C244.039 177.413 243.84 176.923 243.545 176.49C243.25 176.057 242.867 175.692 242.421 175.418C241.975 175.144 241.476 174.967 240.956 174.899C240.437 174.831 239.909 174.874 239.408 175.024C236.436 176.011 234.83 181.435 234.859 184.237C234.859 184.404 235.077 186.19 235.229 187.322C235.033 186.669 234.859 186.037 234.655 185.377C234.256 184.055 233.82 182.749 233.354 181.347C233.107 180.672 232.853 179.997 232.628 179.315C232.403 178.632 232.054 177.935 231.763 177.246C231.036 175.641 230.31 174.058 229.46 172.476C230.615 172.127 234.699 170.82 236.283 169.441C237.867 168.062 239.502 165.884 239.349 163.677C239.333 163.156 239.207 162.645 238.98 162.176C238.752 161.707 238.428 161.292 238.029 160.957C237.63 160.622 237.165 160.375 236.663 160.232C236.162 160.089 235.636 160.053 235.12 160.126C232.025 160.649 229.619 165.775 229.22 168.541C229.22 168.715 229.133 170.719 229.118 171.844C228.617 170.9 228.115 169.949 227.577 169.013C226.015 166.298 224.351 163.59 222.702 160.889L221.205 158.399C221.619 158.282 226.502 156.838 228.282 155.291C229.866 153.926 231.501 151.741 231.349 149.527C231.332 149.007 231.205 148.496 230.977 148.028C230.749 147.56 230.425 147.145 230.026 146.81C229.627 146.475 229.163 146.228 228.662 146.084C228.161 145.941 227.636 145.904 227.12 145.977C224.024 146.507 221.619 151.625 221.219 154.391C221.219 154.602 221.103 157.513 221.117 158.253C220.02 156.424 218.937 154.623 217.964 152.743C216.62 150.255 215.44 147.682 214.432 145.04C214.621 144.982 219.729 143.494 221.553 141.918C223.13 140.546 224.765 138.361 224.62 136.154C224.602 135.633 224.474 135.123 224.245 134.654C224.017 134.186 223.692 133.772 223.293 133.437C222.893 133.102 222.428 132.855 221.927 132.711C221.425 132.568 220.9 132.531 220.383 132.604C217.288 133.127 214.883 138.245 214.483 141.018C214.483 141.236 214.359 144.365 214.388 144.931C214.33 144.779 214.25 144.626 214.192 144.467C213.255 141.789 212.557 139.034 212.107 136.234C211.838 134.695 211.671 133.199 211.54 131.747C212.521 131.566 216.983 130.694 218.807 129.46C220.631 128.226 222.389 126.28 222.484 124.066C222.524 123.547 222.454 123.025 222.279 122.535C222.104 122.044 221.827 121.596 221.467 121.22C221.107 120.843 220.672 120.546 220.19 120.349C219.708 120.151 219.189 120.057 218.669 120.073C215.537 120.255 212.586 125.075 211.881 127.79C211.845 127.936 211.62 129.475 211.475 130.6C211.424 129.947 211.358 129.264 211.322 128.64C211.184 126.273 211.206 124.095 211.242 122.164C211.242 121.068 211.315 120.08 211.366 119.158C212.238 118.476 215.726 115.703 216.707 113.815C217.688 111.927 218.429 109.336 217.491 107.332C217.287 106.852 216.984 106.421 216.602 106.066C216.22 105.711 215.768 105.44 215.274 105.272C214.781 105.104 214.257 105.041 213.738 105.088C213.218 105.135 212.714 105.291 212.259 105.546C209.563 107.15 209.171 112.806 209.796 115.521C209.847 115.753 211.118 119.347 211.162 119.311L211.22 119.267C211.148 120.16 211.082 121.111 211.039 122.171C210.959 124.102 210.893 126.288 210.98 128.662C211.047 131.228 211.263 133.787 211.627 136.328C212.023 139.175 212.67 141.981 213.56 144.714C213.569 144.746 213.581 144.778 213.596 144.808C213.059 144.082 211.482 142.035 211.336 141.904C209.382 139.9 204.419 137.185 201.614 138.579C201.154 138.823 200.75 139.162 200.429 139.572C200.109 139.983 199.878 140.456 199.753 140.962C199.627 141.467 199.61 141.993 199.701 142.506C199.793 143.018 199.991 143.506 200.284 143.937C201.468 145.81 204.077 146.616 206.163 146.79C208.51 146.993 213.335 145.273 213.72 145.135C214.678 147.891 215.819 150.581 217.135 153.186C217.906 154.703 218.727 156.213 219.57 157.716C219.083 157.085 218.647 156.533 218.574 156.46C216.619 154.456 211.656 151.734 208.844 153.128C208.384 153.374 207.981 153.713 207.661 154.125C207.341 154.536 207.112 155.01 206.987 155.516C206.862 156.022 206.845 156.549 206.938 157.061C207.03 157.574 207.229 158.062 207.521 158.493C208.699 160.359 211.307 161.165 213.393 161.346C215.478 161.528 219.65 160.141 220.74 159.764C221.074 160.337 221.394 160.911 221.728 161.484C223.319 164.221 224.918 166.951 226.4 169.673C226.931 170.639 227.41 171.597 227.897 172.577C227.461 172.018 227.091 171.554 227.025 171.488C225.07 169.485 220.107 166.762 217.302 168.163C216.842 168.408 216.439 168.746 216.118 169.157C215.798 169.567 215.567 170.041 215.442 170.546C215.316 171.051 215.299 171.577 215.39 172.09C215.482 172.603 215.68 173.09 215.973 173.521C217.157 175.394 219.766 176.2 221.851 176.374C223.937 176.549 227.701 175.307 229.002 174.857C229.467 175.859 229.932 176.861 230.346 177.855C230.608 178.538 230.906 179.177 231.131 179.881L231.858 181.928C232.264 183.242 232.686 184.6 233.042 185.899C233.304 186.8 233.529 187.656 233.769 188.528C233.26 187.562 232.214 185.703 232.112 185.558C230.605 183.607 228.621 182.077 226.349 181.115C226.195 180.889 226.017 180.68 225.819 180.491C225.456 180.117 225.019 179.823 224.535 179.629C224.051 179.435 223.532 179.345 223.011 179.365C222.49 179.385 221.979 179.514 221.511 179.745C221.043 179.975 220.629 180.301 220.296 180.701C218.356 183.162 220.013 188.571 221.582 190.865C221.677 190.996 222.84 192.375 223.595 193.225C223.079 192.789 222.578 192.361 222.04 191.925C220.979 191.04 219.897 190.197 218.734 189.275L216.954 188.034C216.38 187.591 215.718 187.199 215.093 186.778C213.64 185.827 212.099 184.941 210.537 184.077C211.307 183.148 213.989 179.808 214.556 177.783C215.122 175.757 215.282 173.049 213.931 171.249C213.628 170.824 213.24 170.468 212.791 170.203C212.342 169.938 211.843 169.771 211.325 169.711C210.807 169.652 210.282 169.701 209.784 169.858C209.287 170.014 208.828 170.272 208.437 170.617C206.148 172.795 206.984 178.356 208.168 180.89C208.241 181.05 209.302 182.77 209.905 183.7C208.96 183.192 208.023 182.676 207.056 182.19C204.251 180.781 201.374 179.445 198.504 178.102L195.88 176.846C196.164 176.52 199.441 172.621 200.073 170.356C200.633 168.338 200.8 165.615 199.448 163.858C199.146 163.434 198.758 163.077 198.309 162.813C197.86 162.548 197.36 162.38 196.842 162.32C196.324 162.261 195.799 162.311 195.302 162.467C194.805 162.623 194.345 162.882 193.955 163.227C191.666 165.368 192.501 170.966 193.678 173.499C193.773 173.688 195.306 176.164 195.72 176.774C193.802 175.852 191.898 174.915 190.052 173.921C187.558 172.581 185.152 171.083 182.851 169.434C182.982 169.281 186.419 165.23 187.066 162.9C187.633 160.889 187.792 158.166 186.441 156.366C186.139 155.941 185.752 155.585 185.303 155.32C184.855 155.055 184.355 154.888 183.837 154.829C183.32 154.77 182.795 154.821 182.299 154.978C181.802 155.135 181.344 155.395 180.955 155.741C178.658 157.883 179.501 163.473 180.678 166.007C180.773 166.21 182.422 168.868 182.757 169.325C182.626 169.231 182.473 169.143 182.342 169.049C180.08 167.334 177.977 165.419 176.057 163.328C174.981 162.188 174.015 161.041 173.099 159.901C173.826 159.212 177.067 156.025 177.881 153.999C178.695 151.974 179.116 149.367 177.975 147.465C177.721 147.01 177.374 146.614 176.957 146.301C176.539 145.989 176.061 145.768 175.553 145.652C175.044 145.537 174.517 145.529 174.006 145.63C173.494 145.731 173.01 145.938 172.583 146.238C170.069 148.118 170.273 153.767 171.181 156.402C171.232 156.547 171.908 157.956 172.394 158.972C171.995 158.449 171.566 157.919 171.188 157.419C169.735 155.516 168.579 153.694 167.555 152.068C166.973 151.139 166.465 150.289 165.992 149.483C166.349 148.438 167.707 144.213 167.504 142.085C167.3 139.958 166.465 137.403 164.597 136.277C164.162 135.99 163.672 135.797 163.157 135.712C162.643 135.627 162.116 135.651 161.612 135.782C161.107 135.914 160.636 136.15 160.229 136.475C159.822 136.801 159.488 137.208 159.249 137.671C157.883 140.495 160.666 145.418 162.701 147.349C162.875 147.516 165.913 149.81 165.934 149.752V149.694C166.37 150.471 166.843 151.306 167.388 152.199C168.39 153.854 169.568 155.712 170.927 157.644C172.398 159.747 173.99 161.764 175.693 163.684C177.595 165.839 179.684 167.821 181.936 169.608L182.015 169.666C181.158 169.347 178.724 168.519 178.527 168.483C175.788 167.887 170.149 168.352 168.572 171.067C168.324 171.525 168.175 172.03 168.135 172.548C168.095 173.067 168.164 173.589 168.339 174.079C168.514 174.569 168.79 175.017 169.149 175.394C169.509 175.771 169.943 176.068 170.425 176.265C172.431 177.224 175.054 176.454 176.892 175.452Z" fill="#85CFF9"/>
<path d="M211.053 131.406C211.111 131.406 209.658 127.885 209.542 127.667C208.183 125.22 204.113 121.286 201.04 121.895C200.537 122.014 200.065 122.236 199.653 122.547C199.242 122.858 198.9 123.252 198.649 123.704C198.399 124.155 198.245 124.653 198.199 125.167C198.153 125.681 198.214 126.198 198.38 126.687C199.019 128.8 201.323 130.266 203.292 130.985C205.559 131.834 211.053 131.406 211.053 131.406Z" fill="#85CFF9"/>
<path d="M372.591 51.7348H321.078L318.898 55.706C317.741 57.7889 316.047 59.5245 313.993 60.733C311.938 61.9415 309.597 62.5788 307.213 62.5788C304.829 62.5788 302.488 61.9415 300.433 60.733C298.379 59.5245 296.685 57.7889 295.528 55.706L293.384 51.7348H241.907C239.303 51.7018 236.792 52.7035 234.926 54.5196C233.061 56.3357 231.994 58.8176 231.959 61.4196V326.453C231.994 329.055 233.061 331.537 234.926 333.353C236.792 335.169 239.303 336.171 241.907 336.138H372.591C375.196 336.171 377.708 335.17 379.575 333.354C381.441 331.538 382.51 329.056 382.546 326.453V61.4196C382.51 58.8169 381.441 56.3351 379.575 54.5192C377.708 52.7033 375.196 51.7018 372.591 51.7348Z" fill="white"/>
<path d="M372.184 55.5463H361.8V61.2381H372.184V55.5463Z" stroke="#263238" stroke-width="0.910723" stroke-linecap="round" stroke-linejoin="round"/>
<path d="M369.902 55.5463H361.8V61.2381H369.902V55.5463Z" fill="#263238" stroke="#263238" stroke-width="0.804247" stroke-linecap="round" stroke-linejoin="round"/>
<path d="M373.623 57.1362H372.162V59.6409H373.623V57.1362Z" fill="#263238" stroke="#263238" stroke-width="0.804247" stroke-linecap="round" stroke-linejoin="round"/>
<path d="M242.438 57.3105H240.534V60.5703H242.438V57.3105Z" fill="#263238" stroke="#263238" stroke-width="0.979514" stroke-linecap="round" stroke-linejoin="round"/>
<path d="M245.432 56.1635H243.528V60.5703H245.432V56.1635Z" fill="#263238" stroke="#263238" stroke-width="0.979514" stroke-linecap="round" stroke-linejoin="round"/>
<path d="M248.426 54.813H246.522V60.5702H248.426V54.813Z" fill="#263238" stroke="#263238" stroke-width="0.979514" stroke-linecap="round" stroke-linejoin="round"/>
<path d="M236.566 63.1838H377.91" stroke="#263238" stroke-width="1.10919" stroke-linecap="round" stroke-linejoin="round"/>
<path d="M389.878 142.826C390.158 142.826 390.426 142.715 390.624 142.518C390.821 142.32 390.932 142.053 390.932 141.773V113.517C390.932 113.238 390.821 112.97 390.624 112.773C390.426 112.576 390.158 112.465 389.878 112.465H387.132V58.4866C387.132 56.705 386.78 54.941 386.098 53.2951C385.415 51.6492 384.415 50.1539 383.153 48.8945C381.892 47.6351 380.395 46.6363 378.747 45.9552C377.099 45.2741 375.333 44.924 373.55 44.9249H240.948C239.165 44.924 237.399 45.2741 235.751 45.9552C234.104 46.6363 232.606 47.6351 231.345 48.8945C230.084 50.1539 229.083 51.6492 228.401 53.2951C227.718 54.941 227.367 56.705 227.367 58.4866V337.024C227.367 338.805 227.718 340.569 228.401 342.215C229.083 343.861 230.084 345.356 231.345 346.616C232.606 347.875 234.104 348.874 235.751 349.555C237.399 350.236 239.165 350.586 240.948 350.585H373.55C375.333 350.586 377.099 350.236 378.747 349.555C380.395 348.874 381.892 347.875 383.153 346.616C384.415 345.356 385.415 343.861 386.098 342.215C386.78 340.569 387.132 338.805 387.132 337.024V167.14H389.878C390.158 167.14 390.426 167.029 390.624 166.831C390.821 166.634 390.932 166.366 390.932 166.087V153.491C390.932 153.212 390.821 152.944 390.624 152.747C390.426 152.549 390.158 152.438 389.878 152.438H387.132V142.826H389.878ZM382.546 326.453C382.51 329.056 381.441 331.538 379.575 333.354C377.708 335.17 375.196 336.171 372.591 336.138H241.907C239.303 336.171 236.792 335.169 234.926 333.353C233.061 331.537 231.994 329.055 231.959 326.453V61.4196C231.994 58.8176 233.061 56.3357 234.926 54.5196C236.792 52.7035 239.303 51.7019 241.907 51.7348H293.421L295.564 55.706C296.721 57.7889 298.415 59.5246 300.469 60.733C302.524 61.9415 304.865 62.5788 307.249 62.5788C309.633 62.5788 311.974 61.9415 314.029 60.733C316.084 59.5246 317.777 57.7889 318.934 55.706L321.114 51.7348H372.627C375.233 51.7019 377.744 52.7033 379.611 54.5192C381.477 56.3351 382.546 58.817 382.583 61.4196L382.546 326.453Z" fill="#263238" stroke="#263238" stroke-width="1.10919" stroke-linecap="round" stroke-linejoin="round"/>
<path d="M310.795 53.2521C310.795 52.5514 310.587 51.8664 310.198 51.2838C309.808 50.7012 309.254 50.2471 308.606 49.9789C307.958 49.7108 307.245 49.6406 306.557 49.7773C305.869 49.914 305.238 50.2514 304.742 50.7469C304.246 51.2424 303.908 51.8737 303.771 52.5609C303.634 53.2482 303.705 53.9605 303.973 54.6079C304.241 55.2553 304.696 55.8086 305.279 56.1979C305.862 56.5872 306.548 56.795 307.249 56.795C307.715 56.7959 308.177 56.705 308.607 56.5273C309.038 56.3495 309.429 56.0886 309.759 55.7594C310.088 55.4303 310.349 55.0393 310.527 54.609C310.705 54.1788 310.796 53.7176 310.795 53.2521Z" fill="white" stroke="#263238" stroke-width="1.10919" stroke-linecap="round" stroke-linejoin="round"/>
<path d="M325.881 71.2134H245.948C244.331 71.2134 242.78 71.8551 241.637 72.9974C240.493 74.1397 239.851 75.6891 239.851 77.3045V110.025L247.023 102.366H325.881C327.498 102.366 329.049 101.724 330.192 100.582C331.335 99.4397 331.978 97.8904 331.978 96.2749V77.3045C331.978 75.6891 331.335 74.1397 330.192 72.9974C329.049 71.8551 327.498 71.2134 325.881 71.2134Z" fill="#A3A3A3"/>
<path d="M257.512 93.0462C262.182 92.2863 265.352 87.8879 264.591 83.2221C263.83 78.5563 259.428 75.3899 254.758 76.1498C250.088 76.9096 246.918 81.308 247.679 85.9739C248.44 90.6397 252.842 93.8061 257.512 93.0462Z" fill="white"/>
<path d="M260.459 84.7968C260.459 84.7968 261.36 83.5989 261.564 84.7968C261.767 85.9947 260.023 87.4975 260.023 87.4975L260.459 84.7968Z" fill="white" stroke="#263238" stroke-width="1.10919" stroke-linecap="round" stroke-linejoin="round"/>
<path d="M251.841 84.7968C251.841 84.7968 250.947 83.5989 250.744 84.7968C250.54 85.9947 252.277 87.4975 252.277 87.4975L251.841 84.7968Z" fill="white" stroke="#263238" stroke-width="1.10919" stroke-linecap="round" stroke-linejoin="round"/>
<path d="M256.455 78.8945C256.455 78.8945 253.062 78.6331 252.277 80.891C251.492 83.1489 252.023 86.8006 252.277 87.4976C252.531 88.1945 254.718 91.5777 255.322 91.8536C255.925 92.1295 257.414 92.0278 257.669 91.6794C257.923 91.3309 260.11 88.1147 260.277 86.9894C260.349 85.3289 260.317 83.6656 260.183 82.009C260.151 81.4248 259.955 80.8613 259.617 80.3835C259.279 79.9057 258.813 79.533 258.272 79.3083C257.694 79.0692 257.08 78.9293 256.455 78.8945Z" fill="white" stroke="#263238" stroke-width="1.10919" stroke-linecap="round" stroke-linejoin="round"/>
<path d="M260.183 81.9945C260.151 81.4102 259.955 80.8468 259.617 80.369C259.279 79.8912 258.813 79.5185 258.272 79.2938C257.693 79.0597 257.079 78.9247 256.455 78.8945C256.455 78.8945 253.062 78.6331 252.277 80.891C251.908 82.1779 251.778 83.5212 251.892 84.8549C252.066 85.0582 252.618 85.6608 252.546 84.8985C252.444 83.9983 252.342 81.2685 253.047 80.7022C253.752 80.136 253.846 79.606 254.842 80.4046C255.838 81.2032 255.743 81.9001 256.746 81.4064C257.749 80.9128 257.945 79.8093 258.839 80.2086C259.732 80.6079 259.442 82.5027 259.442 83.4029C259.442 84.3032 259.442 85.9948 260.045 85.1962C260.155 85.0292 260.243 84.8486 260.307 84.6589C260.277 83.7442 260.227 82.7641 260.183 81.9945Z" fill="#263238" stroke="#263238" stroke-width="1.10919" stroke-linecap="round" stroke-linejoin="round"/>
<path d="M255.009 91.2945C255.009 91.2945 256.085 89.1165 256.768 89.9296C257.193 90.4338 257.501 91.0266 257.669 91.6647C257.257 91.9393 256.759 92.0533 256.268 91.985C255.778 91.9168 255.33 91.671 255.009 91.2945Z" fill="#263238" stroke="#263238" stroke-width="1.10919" stroke-linecap="round" stroke-linejoin="round"/>
<path d="M255.496 78.7274C255.327 78.3384 255.059 78.0005 254.718 77.7473L254.232 77.4569C254.232 77.4569 255.402 76.9705 255.787 77.3626C256.032 77.6053 256.26 77.8648 256.47 78.1394C256.47 78.1394 256.666 76.7745 257.153 77.2609C257.43 77.54 257.723 77.8019 258.032 78.045C258.032 78.045 256.666 78.4298 256.666 79.4099" fill="#263238"/>
<path d="M255.496 78.7274C255.327 78.3384 255.059 78.0005 254.718 77.7473L254.232 77.4569C254.232 77.4569 255.402 76.9705 255.787 77.3626C256.032 77.6053 256.26 77.8648 256.47 78.1394C256.47 78.1394 256.666 76.7745 257.153 77.2609C257.43 77.54 257.723 77.8019 258.032 78.045C258.032 78.045 256.666 78.4298 256.666 79.4099" stroke="#263238" stroke-width="1.10919" stroke-linecap="round" stroke-linejoin="round"/>
<path d="M269.76 78.4879H287.52" stroke="white" stroke-width="2.21839" stroke-linecap="round" stroke-linejoin="round"/>
<path d="M269.76 84.6661H324.122" stroke="white" stroke-width="1.10919" stroke-linecap="round" stroke-linejoin="round"/>
<path d="M269.76 89.7772H324.122" stroke="white" stroke-width="1.10919" stroke-linecap="round" stroke-linejoin="round"/>
<path d="M269.76 95.4255H324.122" stroke="white" stroke-width="1.10919" stroke-linecap="round" stroke-linejoin="round"/>
<path d="M368.304 115.434H288.327C287.527 115.434 286.734 115.592 285.995 115.898C285.256 116.204 284.584 116.653 284.018 117.219C283.453 117.784 283.004 118.456 282.699 119.195C282.393 119.934 282.236 120.726 282.237 121.525V140.525C282.237 142.139 282.879 143.687 284.02 144.829C285.162 145.971 286.711 146.614 288.327 146.616H367.192L374.4 154.246V121.511C374.397 119.898 373.753 118.352 372.61 117.213C371.467 116.074 369.918 115.434 368.304 115.434Z" fill="#85CFF9"/>
<path d="M312.183 122.687H329.943" stroke="#263238" stroke-width="2.21839" stroke-linecap="round" stroke-linejoin="round"/>
<path d="M312.183 128.872H366.545" stroke="#263238" stroke-width="1.10919" stroke-linecap="round" stroke-linejoin="round"/>
<path d="M312.183 133.983H366.545" stroke="#263238" stroke-width="1.10919" stroke-linecap="round" stroke-linejoin="round"/>
<path d="M312.183 139.632H366.545" stroke="#263238" stroke-width="1.10919" stroke-linecap="round" stroke-linejoin="round"/>
<path d="M298.914 139.16C303.646 139.16 307.482 135.327 307.482 130.6C307.482 125.873 303.646 122.041 298.914 122.041C294.183 122.041 290.347 125.873 290.347 130.6C290.347 135.327 294.183 139.16 298.914 139.16Z" fill="white"/>
<path d="M297.839 124.095C296.952 124.042 296.072 124.286 295.339 124.788C294.606 125.29 294.061 126.022 293.791 126.868C292.789 129.549 292.225 132.373 292.12 135.232C292.12 137.003 295.63 138.405 297.548 138.55C299.467 138.695 303.783 138.622 305.265 136.263C306.748 133.903 304.343 129.112 303.747 126.164C303.151 123.217 299.903 123.95 297.839 124.095Z" fill="#263238" stroke="#263238" stroke-width="1.10919" stroke-linecap="round" stroke-linejoin="round"/>
<path d="M303.238 130.012C303.238 130.012 304.139 128.814 304.335 130.012C304.531 131.21 302.802 132.706 302.802 132.706L303.238 130.012Z" fill="white" stroke="#263238" stroke-width="1.10919" stroke-linecap="round" stroke-linejoin="round"/>
<path d="M294.62 130.012C294.62 130.012 293.719 128.814 293.522 130.012C293.326 131.21 295.056 132.706 295.056 132.706L294.62 130.012Z" fill="white" stroke="#263238" stroke-width="1.10919" stroke-linecap="round" stroke-linejoin="round"/>
<path d="M299.234 124.146C299.234 124.146 295.841 123.885 295.056 126.143C294.271 128.4 294.794 132.052 295.056 132.742C295.317 133.432 297.49 136.829 298.1 137.098C298.711 137.367 300.186 137.272 300.448 136.924C300.709 136.575 302.882 133.359 303.056 132.234C303.128 130.573 303.096 128.91 302.962 127.253C302.931 126.669 302.735 126.105 302.397 125.627C302.059 125.149 301.592 124.777 301.051 124.553C300.472 124.316 299.858 124.179 299.234 124.146Z" fill="white" stroke="#263238" stroke-width="1.10919" stroke-linecap="round" stroke-linejoin="round"/>
<path d="M296.654 124.981C296.654 124.981 302.141 130.012 303.238 130.012C304.335 130.012 304.481 126.309 303.296 124.538C302.112 122.767 296.48 121.736 296.654 124.981Z" fill="#263238" stroke="#263238" stroke-width="1.10919" stroke-linecap="round" stroke-linejoin="round"/>
<path d="M325.881 160.94H245.948C244.332 160.94 242.782 161.58 241.639 162.721C240.496 163.862 239.853 165.409 239.851 167.024V199.744L247.059 192.114H325.881C326.681 192.115 327.474 191.958 328.214 191.653C328.953 191.348 329.625 190.9 330.192 190.335C330.758 189.77 331.207 189.099 331.513 188.36C331.82 187.622 331.978 186.83 331.978 186.03V167.024C331.978 166.224 331.82 165.432 331.513 164.694C331.207 163.955 330.758 163.284 330.192 162.719C329.625 162.154 328.953 161.706 328.214 161.401C327.474 161.095 326.681 160.939 325.881 160.94Z" fill="#A3A3A3"/>
<path d="M264.035 177.608C265.857 173.246 263.794 168.233 259.428 166.413C255.061 164.592 250.044 166.653 248.222 171.016C246.4 175.379 248.462 180.391 252.829 182.212C257.196 184.032 262.213 181.971 264.035 177.608Z" fill="white"/>
<path d="M260.459 174.523C260.459 174.523 261.36 173.325 261.564 174.523C261.767 175.721 260.023 177.217 260.023 177.217L260.459 174.523Z" fill="white" stroke="#263238" stroke-width="1.10919" stroke-linecap="round" stroke-linejoin="round"/>
<path d="M251.841 174.523C251.841 174.523 250.947 173.325 250.744 174.523C250.54 175.721 252.277 177.217 252.277 177.217L251.841 174.523Z" fill="white" stroke="#263238" stroke-width="1.10919" stroke-linecap="round" stroke-linejoin="round"/>
<path d="M256.455 168.613C256.455 168.613 253.062 168.352 252.277 170.61C251.492 172.868 252.023 176.52 252.277 177.217C252.531 177.914 254.718 181.304 255.322 181.573C255.925 181.841 257.414 181.747 257.669 181.398C257.923 181.05 260.11 177.841 260.277 176.708C260.349 175.048 260.317 173.385 260.183 171.728C260.153 171.144 259.957 170.581 259.618 170.104C259.28 169.628 258.813 169.257 258.272 169.035C257.693 168.796 257.08 168.654 256.455 168.613Z" fill="white" stroke="#263238" stroke-width="1.10919" stroke-linecap="round" stroke-linejoin="round"/>
<path d="M260.183 171.714C260.153 171.13 259.957 170.567 259.618 170.09C259.28 169.613 258.813 169.242 258.272 169.02C257.693 168.787 257.079 168.649 256.455 168.613C256.455 168.613 253.062 168.352 252.277 170.61C251.909 171.899 251.778 173.245 251.892 174.581C252.066 174.777 252.618 175.387 252.546 174.625C252.444 173.725 252.342 170.995 253.047 170.428C253.752 169.862 253.846 169.332 254.842 170.131C255.838 170.929 255.743 171.626 256.746 171.125C257.749 170.625 257.945 169.528 258.839 169.928C259.732 170.327 259.442 172.222 259.442 173.122C259.442 174.022 259.442 175.721 260.045 174.922C260.155 174.753 260.243 174.57 260.307 174.378C260.277 173.47 260.227 172.476 260.183 171.714Z" fill="#263238" stroke="#263238" stroke-width="1.10919" stroke-linecap="round" stroke-linejoin="round"/>
<path d="M255.009 181.014C255.009 181.014 256.085 178.836 256.768 179.649C257.192 180.154 257.5 180.746 257.669 181.384C257.257 181.658 256.759 181.772 256.268 181.704C255.778 181.636 255.33 181.39 255.009 181.014Z" fill="#263238" stroke="#263238" stroke-width="1.10919" stroke-linecap="round" stroke-linejoin="round"/>
<path d="M255.496 168.432C255.328 168.045 255.059 167.709 254.718 167.459L254.232 167.169C254.232 167.169 255.402 166.682 255.787 167.067C256.031 167.313 256.26 167.575 256.47 167.851C256.47 167.851 256.666 166.486 257.153 166.973C257.428 167.251 257.722 167.511 258.032 167.75C258.032 167.75 256.666 168.142 256.666 169.115" fill="#263238"/>
<path d="M255.496 168.432C255.328 168.045 255.059 167.709 254.718 167.459L254.232 167.169C254.232 167.169 255.402 166.682 255.787 167.067C256.031 167.313 256.26 167.575 256.47 167.851C256.47 167.851 256.666 166.486 257.153 166.973C257.428 167.251 257.722 167.511 258.032 167.75C258.032 167.75 256.666 168.142 256.666 169.115" stroke="#263238" stroke-width="1.10919" stroke-linecap="round" stroke-linejoin="round"/>
<path d="M269.76 168.207H287.52" stroke="white" stroke-width="2.21839" stroke-linecap="round" stroke-linejoin="round"/>
<path d="M269.76 174.392H324.122" stroke="white" stroke-width="1.10919" stroke-linecap="round" stroke-linejoin="round"/>
<path d="M269.76 179.504H324.122" stroke="white" stroke-width="1.10919" stroke-linecap="round" stroke-linejoin="round"/>
<path d="M269.76 185.145H324.122" stroke="white" stroke-width="1.10919" stroke-linecap="round" stroke-linejoin="round"/>
<path d="M325.881 205.61H245.948C245.143 205.604 244.344 205.756 243.599 206.059C242.853 206.363 242.175 206.81 241.604 207.376C241.032 207.943 240.578 208.616 240.269 209.359C239.959 210.101 239.8 210.897 239.8 211.702V244.422L247.009 236.792H325.881C327.498 236.792 329.049 236.15 330.192 235.008C331.335 233.866 331.978 232.316 331.978 230.701V211.702C331.979 210.901 331.822 210.109 331.516 209.369C331.209 208.63 330.76 207.958 330.194 207.392C329.628 206.827 328.955 206.378 328.215 206.072C327.475 205.766 326.682 205.609 325.881 205.61Z" fill="#A3A3A3"/>
<path d="M264.031 222.276C265.853 217.913 263.79 212.901 259.424 211.08C255.057 209.26 250.04 211.321 248.218 215.683C246.396 220.046 248.458 225.058 252.825 226.879C257.192 228.699 262.209 226.639 264.031 222.276Z" fill="white"/>
<path d="M260.459 219.194C260.459 219.194 261.36 217.996 261.564 219.194C261.767 220.392 260.023 221.887 260.023 221.887L260.459 219.194Z" fill="white" stroke="#263238" stroke-width="1.10919" stroke-linecap="round" stroke-linejoin="round"/>
<path d="M251.841 219.194C251.841 219.194 250.947 217.996 250.744 219.194C250.54 220.392 252.277 221.887 252.277 221.887L251.841 219.194Z" fill="white" stroke="#263238" stroke-width="1.10919" stroke-linecap="round" stroke-linejoin="round"/>
<path d="M256.455 213.284C256.455 213.284 253.062 213.023 252.277 215.288C251.492 217.553 252.023 221.19 252.277 221.887C252.531 222.584 254.718 225.975 255.322 226.243C255.925 226.512 257.414 226.418 257.669 226.069C257.923 225.721 260.11 222.505 260.277 221.372C260.349 219.712 260.317 218.048 260.183 216.392C260.153 215.808 259.957 215.245 259.618 214.768C259.28 214.291 258.813 213.92 258.272 213.698C257.693 213.462 257.079 213.323 256.455 213.284Z" fill="white" stroke="#263238" stroke-width="1.10919" stroke-linecap="round" stroke-linejoin="round"/>
<path d="M260.183 216.384C260.153 215.801 259.957 215.238 259.618 214.761C259.28 214.284 258.813 213.913 258.272 213.691C257.693 213.458 257.079 213.32 256.455 213.284C256.455 213.284 253.062 213.023 252.277 215.288C251.908 216.575 251.778 217.918 251.892 219.252C252.066 219.455 252.618 220.058 252.546 219.296C252.444 218.395 252.342 215.702 253.047 215.099C253.752 214.497 253.846 214.003 254.842 214.802C255.838 215.6 255.743 216.297 256.746 215.796C257.749 215.295 257.945 214.199 258.839 214.598C259.732 214.998 259.442 216.9 259.442 217.793C259.442 218.686 259.442 220.392 260.045 219.593C260.154 219.425 260.241 219.245 260.307 219.056C260.277 218.141 260.227 217.147 260.183 216.384Z" fill="#263238" stroke="#263238" stroke-width="1.10919" stroke-linecap="round" stroke-linejoin="round"/>
<path d="M255.009 225.684C255.009 225.684 256.085 223.543 256.768 224.327C257.193 224.831 257.501 225.424 257.669 226.062C257.256 226.334 256.757 226.446 256.267 226.376C255.777 226.307 255.33 226.061 255.009 225.684Z" fill="#263238" stroke="#263238" stroke-width="1.10919" stroke-linecap="round" stroke-linejoin="round"/>
<path d="M255.496 213.117C255.328 212.73 255.059 212.394 254.718 212.144L254.232 211.854C254.232 211.854 255.402 211.368 255.787 211.752C256.031 211.999 256.26 212.26 256.47 212.536C256.47 212.536 256.666 211.172 257.153 211.658C257.428 211.936 257.722 212.196 258.032 212.435C258.032 212.435 256.666 212.827 256.666 213.8" fill="#263238"/>
<path d="M255.496 213.117C255.328 212.73 255.059 212.394 254.718 212.144L254.232 211.854C254.232 211.854 255.402 211.368 255.787 211.752C256.031 211.999 256.26 212.26 256.47 212.536C256.47 212.536 256.666 211.172 257.153 211.658C257.428 211.936 257.722 212.196 258.032 212.435C258.032 212.435 256.666 212.827 256.666 213.8" stroke="#263238" stroke-width="1.10919" stroke-linecap="round" stroke-linejoin="round"/>
<path d="M269.76 212.878H287.52" stroke="white" stroke-width="2.21839" stroke-linecap="round" stroke-linejoin="round"/>
<path d="M269.76 219.063H324.122" stroke="white" stroke-width="1.10919" stroke-linecap="round" stroke-linejoin="round"/>
<path d="M269.76 224.174H324.122" stroke="white" stroke-width="1.10919" stroke-linecap="round" stroke-linejoin="round"/>
<path d="M269.76 229.815H324.122" stroke="white" stroke-width="1.10919" stroke-linecap="round" stroke-linejoin="round"/>
<path d="M325.881 289.79H245.948C244.331 289.79 242.78 290.432 241.637 291.574C240.493 292.717 239.851 294.266 239.851 295.881V328.602L247.059 320.972H325.881C326.682 320.973 327.475 320.816 328.215 320.51C328.955 320.204 329.628 319.756 330.194 319.19C330.76 318.624 331.209 317.952 331.516 317.213C331.822 316.473 331.979 315.681 331.978 314.881V295.881C331.978 294.266 331.335 292.717 330.192 291.574C329.049 290.432 327.498 289.79 325.881 289.79Z" fill="#A3A3A3"/>
<path d="M257.523 311.627C262.193 310.867 265.362 306.468 264.602 301.803C263.841 297.137 259.439 293.97 254.769 294.73C250.099 295.49 246.929 299.888 247.69 304.554C248.45 309.22 252.853 312.387 257.523 311.627Z" fill="white"/>
<path d="M260.459 303.381C260.459 303.381 261.36 302.183 261.564 303.381C261.767 304.579 260.023 306.074 260.023 306.074L260.459 303.381Z" fill="white" stroke="#263238" stroke-width="1.10919" stroke-linecap="round" stroke-linejoin="round"/>
<path d="M251.841 303.381C251.841 303.381 250.947 302.183 250.744 303.381C250.54 304.579 252.277 306.074 252.277 306.074L251.841 303.381Z" fill="white" stroke="#263238" stroke-width="1.10919" stroke-linecap="round" stroke-linejoin="round"/>
<path d="M256.455 297.471C256.455 297.471 253.062 297.21 252.277 299.468C251.492 301.726 252.023 305.377 252.277 306.074C252.531 306.771 254.718 310.154 255.322 310.43C255.925 310.706 257.414 310.605 257.669 310.256C257.923 309.908 260.11 306.699 260.277 305.566C260.349 303.906 260.317 302.242 260.183 300.586C260.151 300.002 259.955 299.438 259.617 298.96C259.279 298.483 258.813 298.11 258.272 297.885C257.693 297.649 257.079 297.51 256.455 297.471Z" fill="white" stroke="#263238" stroke-width="1.10919" stroke-linecap="round" stroke-linejoin="round"/>
<path d="M260.183 300.564C260.151 299.98 259.955 299.416 259.617 298.939C259.279 298.461 258.813 298.088 258.272 297.863C257.692 297.633 257.078 297.498 256.455 297.464C256.455 297.464 253.062 297.203 252.277 299.461C251.909 300.75 251.778 302.096 251.892 303.432C252.066 303.628 252.618 304.238 252.546 303.468C252.444 302.575 252.342 299.874 253.047 299.279C253.752 298.684 253.846 298.176 254.842 298.974C255.838 299.773 255.743 300.477 256.746 299.976C257.749 299.475 257.945 298.379 258.839 298.778C259.732 299.177 259.442 301.072 259.442 301.973C259.442 302.873 259.442 304.572 260.045 303.773C260.153 303.603 260.241 303.42 260.307 303.229C260.277 302.321 260.227 301.334 260.183 300.564Z" fill="#263238" stroke="#263238" stroke-width="1.10919" stroke-linecap="round" stroke-linejoin="round"/>
<path d="M255.009 309.871C255.009 309.871 256.085 307.73 256.768 308.507C257.192 309.012 257.5 309.604 257.669 310.242C257.257 310.516 256.759 310.63 256.268 310.562C255.778 310.494 255.33 310.248 255.009 309.871Z" fill="#263238" stroke="#263238" stroke-width="1.10919" stroke-linecap="round" stroke-linejoin="round"/>
<path d="M255.496 297.304C255.328 296.917 255.059 296.581 254.718 296.331L254.232 296.041C254.232 296.041 255.402 295.547 255.787 295.939C256.03 296.184 256.258 296.443 256.47 296.716C256.47 296.716 256.666 295.359 257.153 295.845C257.428 296.123 257.722 296.383 258.032 296.622C258.032 296.622 256.666 297.014 256.666 297.987" fill="#263238"/>
<path d="M255.496 297.304C255.328 296.917 255.059 296.581 254.718 296.331L254.232 296.041C254.232 296.041 255.402 295.547 255.787 295.939C256.03 296.184 256.258 296.443 256.47 296.716C256.47 296.716 256.666 295.359 257.153 295.845C257.428 296.123 257.722 296.383 258.032 296.622C258.032 296.622 256.666 297.014 256.666 297.987" stroke="#263238" stroke-width="1.10919" stroke-linecap="round" stroke-linejoin="round"/>
<path d="M269.76 297.065H287.52" stroke="white" stroke-width="2.21839" stroke-linecap="round" stroke-linejoin="round"/>
<path d="M269.76 303.25H324.122" stroke="white" stroke-width="1.10919" stroke-linecap="round" stroke-linejoin="round"/>
<path d="M269.76 308.354H324.122" stroke="white" stroke-width="1.10919" stroke-linecap="round" stroke-linejoin="round"/>
<path d="M269.76 314.002H324.122" stroke="white" stroke-width="1.10919" stroke-linecap="round" stroke-linejoin="round"/>
<path d="M368.304 250.18H288.327C287.526 250.181 286.734 250.339 285.994 250.646C285.255 250.953 284.583 251.403 284.018 251.969C283.452 252.535 283.004 253.207 282.699 253.947C282.393 254.686 282.236 255.478 282.237 256.278V275.278C282.236 276.077 282.393 276.869 282.699 277.608C283.004 278.347 283.453 279.018 284.018 279.584C284.584 280.15 285.256 280.599 285.995 280.905C286.734 281.211 287.527 281.369 288.327 281.369H367.192L374.4 288.999V256.278C374.401 255.478 374.244 254.685 373.938 253.945C373.633 253.205 373.184 252.533 372.617 251.966C372.051 251.4 371.379 250.951 370.639 250.644C369.898 250.337 369.105 250.18 368.304 250.18Z" fill="#85CFF9"/>
<path d="M312.183 257.454H329.943" stroke="#263238" stroke-width="2.21839" stroke-linecap="round" stroke-linejoin="round"/>
<path d="M312.183 263.64H366.545" stroke="#263238" stroke-width="1.10919" stroke-linecap="round" stroke-linejoin="round"/>
<path d="M312.183 268.743H366.545" stroke="#263238" stroke-width="1.10919" stroke-linecap="round" stroke-linejoin="round"/>
<path d="M312.183 274.392H366.545" stroke="#263238" stroke-width="1.10919" stroke-linecap="round" stroke-linejoin="round"/>
<path d="M298.914 273.927C303.646 273.927 307.482 270.095 307.482 265.368C307.482 260.64 303.646 256.808 298.914 256.808C294.183 256.808 290.347 260.64 290.347 265.368C290.347 270.095 294.183 273.927 298.914 273.927Z" fill="white"/>
<path d="M297.839 258.863C296.952 258.809 296.072 259.053 295.339 259.555C294.606 260.058 294.061 260.79 293.791 261.636C292.788 264.316 292.224 267.14 292.12 269.999C292.12 271.771 295.63 273.172 297.548 273.317C299.467 273.462 303.783 273.39 305.265 271.03C306.748 268.671 304.343 263.879 303.747 260.924C303.151 257.97 299.903 258.717 297.839 258.863Z" fill="#263238" stroke="#263238" stroke-width="1.10919" stroke-linecap="round" stroke-linejoin="round"/>
<path d="M303.238 264.779C303.238 264.779 304.139 263.582 304.335 264.779C304.531 265.977 302.802 267.473 302.802 267.473L303.238 264.779Z" fill="white" stroke="#263238" stroke-width="1.10919" stroke-linecap="round" stroke-linejoin="round"/>
<path d="M294.62 264.779C294.62 264.779 293.719 263.582 293.522 264.779C293.326 265.977 295.056 267.473 295.056 267.473L294.62 264.779Z" fill="white" stroke="#263238" stroke-width="1.10919" stroke-linecap="round" stroke-linejoin="round"/>
<path d="M299.234 258.87C299.234 258.87 295.841 258.609 295.056 260.874C294.271 263.139 294.794 266.776 295.056 267.473C295.317 268.17 297.49 271.56 298.1 271.829C298.711 272.098 300.186 272.003 300.448 271.655C300.709 271.306 302.882 268.09 303.056 266.958C303.128 265.297 303.096 263.634 302.962 261.977C302.931 261.393 302.736 260.83 302.397 260.354C302.059 259.877 301.592 259.506 301.051 259.284C300.472 259.048 299.858 258.908 299.234 258.87Z" fill="white" stroke="#263238" stroke-width="1.10919" stroke-linecap="round" stroke-linejoin="round"/>
<path d="M296.654 259.748C296.654 259.748 302.141 264.78 303.238 264.78C304.335 264.78 304.481 261.077 303.296 259.305C302.112 257.534 296.48 256.503 296.654 259.748Z" fill="#263238" stroke="#263238" stroke-width="1.10919" stroke-linecap="round" stroke-linejoin="round"/>
<path d="M388.767 333.016L387.851 349.206C387.998 349.524 388.209 349.807 388.472 350.039C388.735 350.27 389.043 350.444 389.377 350.549C390.358 350.723 411.744 350.549 411.744 350.549C411.893 349.681 411.833 348.79 411.569 347.95C411.411 347.398 411.114 346.895 410.707 346.488C410.301 346.082 409.797 345.785 409.244 345.627C408.169 345.358 400.742 341.961 400.11 341.692C399.478 341.423 399.129 337.133 399.129 337.133L388.767 333.016Z" fill="white" stroke="#263238" stroke-width="1.10919" stroke-miterlimit="10"/>
<path d="M411.744 350.542C411.831 349.967 411.831 349.382 411.744 348.807L387.88 348.168L387.822 349.199C387.969 349.516 388.18 349.8 388.443 350.031C388.706 350.263 389.014 350.437 389.348 350.542C390.358 350.716 411.744 350.542 411.744 350.542Z" fill="white" stroke="#263238" stroke-width="1.10919" stroke-miterlimit="10"/>
<path d="M393.207 250.993C393.207 250.993 395.045 290.719 394.842 291.939L387.909 333.699C387.909 333.699 393.817 336.958 396.673 337.568C398.896 337.985 401.144 338.256 403.402 338.381C403.402 338.381 412.783 300.288 413.19 298.052C413.597 295.816 408.496 247.566 408.496 247.566L393.207 250.993Z" fill="#263238" stroke="#263238" stroke-width="1.10919" stroke-miterlimit="10"/>
<path d="M393.49 328.726C393.49 328.726 385.17 340.167 386.151 341.329C387.132 342.491 394.384 349.373 396.179 350.179C397.974 350.985 414.345 350.179 414.345 350.179C414.512 349.712 414.603 349.222 414.614 348.727C414.614 348.001 414.527 345.242 413.546 344.436C412.565 343.63 405.131 340.146 404.826 339.608C404.521 339.071 404.201 334.693 404.201 334.693L393.49 328.726Z" fill="white" stroke="#263238" stroke-width="1.10919" stroke-miterlimit="10"/>
<path d="M414.338 350.179C414.505 349.712 414.595 349.222 414.607 348.727V348.393L403.242 348.821C403.242 348.821 399.754 349.351 397.879 347.834C396.302 346.563 389.406 340.283 387.197 338.265C386.361 339.79 385.875 340.973 386.151 341.307C387.139 342.469 394.384 349.351 396.179 350.157C397.974 350.963 414.338 350.179 414.338 350.179Z" fill="white" stroke="#263238" stroke-width="1.10919" stroke-miterlimit="10"/>
<path d="M387.313 232.458C387.313 232.458 388.541 244.27 389.559 246.107C390.576 247.943 392.211 250.789 392.211 250.789L407.66 294.182L391.761 329.219C391.761 329.219 403.387 336.755 405.829 337.568C406.876 337.981 407.973 338.255 409.092 338.381C409.092 338.381 427.847 294.589 427.847 291.533C427.847 288.476 414.767 244.684 414.767 244.684L415.653 229.605L387.313 232.458Z" fill="#263238" stroke="#263238" stroke-width="1.10919" stroke-miterlimit="10"/>
<path d="M402.777 236.124L411.351 239.551L404.245 233.917L409.142 236.124" stroke="#696969" stroke-width="1.10919" stroke-linecap="round" stroke-linejoin="round"/>
<path d="M397.85 265.89L407.682 294.182L393.41 326.976" stroke="#696969" stroke-width="1.10919" stroke-miterlimit="10"/>
<path d="M395.859 260.162L396.869 263.081" stroke="#696969" stroke-width="1.10919" stroke-miterlimit="10"/>
<path d="M426.771 210.54C426.771 210.54 431.596 206.01 432.585 205.458C433.573 204.906 437.504 203.723 437.788 202.373C438.071 201.022 437.693 194.387 437.308 194.67C436.923 194.953 431.814 202.184 431.814 202.184L425.158 207.389L426.771 210.54Z" fill="white" stroke="#263238" stroke-width="1.10919" stroke-miterlimit="10"/>
<path d="M433.624 200.042L433.042 204.471" stroke="#263238" stroke-width="1.10919" stroke-miterlimit="10"/>
<path d="M435.164 197.726L435.361 203.128" stroke="#263238" stroke-width="1.10919" stroke-miterlimit="10"/>
<path d="M436.727 195.897C436.727 195.897 436.632 201.581 436.727 202.162V195.897Z" fill="white"/>
<path d="M436.727 195.897C436.727 195.897 436.632 201.581 436.727 202.162" stroke="#263238" stroke-width="1.10919" stroke-miterlimit="10"/>
<path d="M438.056 200.812C438.056 200.812 439.699 198.786 439.314 197.443C439.207 197.054 439.012 196.695 438.743 196.394C438.475 196.093 438.14 195.858 437.766 195.708L438.056 200.812Z" fill="white" stroke="#263238" stroke-width="1.10919" stroke-miterlimit="10"/>
<path d="M426.197 205.342C426.488 205.531 428.799 209.095 428.799 209.095L425.892 212.95C425.892 212.95 427.345 215.651 426.473 216.326C425.601 217.001 418.371 220.755 418.371 220.755L415.959 211.026C415.959 211.026 421.358 207.65 421.648 207.752C421.934 207.901 422.194 208.094 422.419 208.326L426.197 205.342Z" fill="#85CFF9" stroke="#263238" stroke-width="1.10919" stroke-miterlimit="10"/>
<path d="M429.271 204.042L430.274 204.732L440.898 189.544L439.895 188.847L429.271 204.042Z" fill="#263238" stroke="#263238" stroke-width="1.10919" stroke-miterlimit="10"/>
<path d="M399.042 176.077C398.446 176.367 390.024 186.56 386.914 190.546C383.804 194.532 384.109 201.037 384.254 204.58C384.399 208.122 382.801 234.418 382.801 234.418C382.801 234.418 395.663 233.387 403.351 232.647C411.039 231.906 421.975 231.195 421.975 231.195C421.975 231.195 418.872 217.611 417.397 211.549C415.922 205.487 413.553 196.782 411.926 192.673C410.802 189.912 409.465 187.242 407.929 184.687L399.042 176.077Z" fill="#85CFF9" stroke="#263238" stroke-width="1.10919" stroke-miterlimit="10"/>
<path d="M414.709 176.52L409.978 181.834L402.711 172.679L406.999 167.655C406.999 167.655 409.513 164.998 410.995 165.288C412.478 165.579 414.709 176.52 414.709 176.52Z" fill="white" stroke="#263238" stroke-width="1.10919" stroke-miterlimit="10"/>
<path d="M409.687 171.053L412.572 179.09L414.709 176.52L409.687 171.053Z" fill="#263238" stroke="#263238" stroke-width="1.10919" stroke-miterlimit="10"/>
<path d="M409.113 167.51C409.113 167.51 407.34 170.312 405.865 169.724C404.39 169.136 400.393 164.846 398.598 159.56C396.804 154.275 403.329 153.353 404.361 151.291C405.393 149.229 406.287 148.924 407.762 141.686C409.237 134.448 425.798 137.258 428.312 141.098C430.826 144.939 430.383 152.62 437.33 150.108C444.277 147.596 451.82 144.939 453.447 151.139C455.075 157.339 449.749 164.875 451.674 167.539C453.6 170.203 459.806 168.265 459.362 170.784C458.919 173.303 455.664 174.922 456.695 175.51C457.727 176.099 463.497 173.151 461.869 175.808C460.242 178.465 456.848 181.275 456.405 180.092C455.962 178.908 456.405 177.434 454.777 178.32C453.149 179.206 448.237 182.749 446.202 180.832C444.168 178.915 446.791 171.968 443.39 171.227C439.989 170.487 431.713 172.853 428.9 172.999C426.088 173.144 425.798 172.273 420.624 169.753C415.45 167.234 409.113 167.51 409.113 167.51Z" fill="#263238" stroke="#263238" stroke-width="1.10919" stroke-miterlimit="10"/>
<path d="M410.276 163.35C410.276 163.35 418.996 163.793 424.613 162.312C427.182 161.713 429.704 160.924 432.156 159.952C432.156 159.952 432.301 165.709 430.826 167.336C429.351 168.962 427.425 170.436 427.425 171.619C427.425 172.802 428.879 174.719 428.014 175.757C427.149 176.795 425.056 176.788 424.468 176.788C423.879 176.788 419.149 181.224 417.819 181.224C416.489 181.224 409.825 172.36 409.687 171.06C409.608 169.486 409.608 167.908 409.687 166.334" fill="white"/>
<path d="M410.276 163.35C410.276 163.35 418.996 163.793 424.613 162.312C427.182 161.713 429.704 160.924 432.156 159.952C432.156 159.952 432.301 165.709 430.826 167.336C429.351 168.962 427.425 170.436 427.425 171.619C427.425 172.802 428.879 174.719 428.014 175.757C427.149 176.795 425.056 176.788 424.468 176.788C423.879 176.788 419.149 181.224 417.819 181.224C416.489 181.224 409.825 172.36 409.687 171.06C409.608 169.486 409.608 167.908 409.687 166.334" stroke="#263238" stroke-width="1.10919" stroke-miterlimit="10"/>
<path d="M425.827 168.541L424.199 170.458C423.686 170.38 423.206 170.158 422.813 169.819C422.421 169.48 422.133 169.037 421.983 168.541" stroke="#263238" stroke-width="1.10919" stroke-miterlimit="10"/>
<path d="M420.326 172.969C420.326 172.969 420.18 175.336 422.106 175.634" stroke="#263238" stroke-width="1.10919" stroke-miterlimit="10"/>
<path d="M424.025 166.029C424.025 166.029 426.684 165.143 427.869 167.358" stroke="#263238" stroke-width="1.10919" stroke-miterlimit="10"/>
<path d="M412.492 165.586C412.492 165.586 410.312 159.052 408.205 161.448C406.098 163.844 407.318 167.982 408.932 168.839C409.409 169.094 409.942 169.228 410.483 169.228C411.024 169.228 411.557 169.094 412.035 168.839" fill="white"/>
<path d="M412.492 165.586C412.492 165.586 410.312 159.052 408.205 161.448C406.098 163.844 407.318 167.982 408.932 168.839C409.409 169.094 409.942 169.228 410.483 169.228C411.024 169.228 411.557 169.094 412.035 168.839" stroke="#263238" stroke-width="1.10919" stroke-miterlimit="10"/>
<path d="M403.3 170.312C403.3 170.312 413.052 179.917 412.747 181.246C412.441 182.574 410.821 183.424 410.821 183.424C410.821 183.424 411.264 186.081 410.53 186.669C410.051 187.033 409.494 187.281 408.903 187.395C408.903 187.395 399.667 177.87 398.446 176.367C397.225 174.864 398.155 174.153 398.889 173.855C399.418 173.661 399.962 173.513 400.517 173.412C400.517 173.412 401.556 169.884 403.3 170.312Z" fill="#85CFF9" stroke="#263238" stroke-width="1.10919" stroke-miterlimit="10"/>
<path d="M389.181 191.773C388.612 195.208 388.306 198.681 388.265 202.162C388.265 207.353 390.402 232.864 391.477 234.244C392.553 235.623 396.825 236.836 398.664 235.616C400.502 234.396 416.402 224.16 416.554 222.475C416.707 220.791 414.106 214.685 413.037 214.228C411.969 213.771 411.046 213.923 409.52 215.295C407.779 216.647 405.943 217.872 404.027 218.962C404.027 218.962 402.958 199.41 401.738 194.67C400.517 189.929 399.899 189.021 399.136 188.716" fill="#85CFF9"/>
<path d="M389.181 191.773C388.612 195.208 388.306 198.681 388.265 202.162C388.265 207.353 390.402 232.864 391.477 234.244C392.553 235.623 396.825 236.836 398.664 235.616C400.502 234.396 416.402 224.16 416.554 222.475C416.707 220.791 414.106 214.685 413.037 214.228C411.969 213.771 411.046 213.923 409.52 215.295C407.779 216.647 405.943 217.872 404.027 218.962C404.027 218.962 402.958 199.41 401.738 194.67C400.517 189.929 399.899 189.021 399.136 188.716" stroke="#263238" stroke-width="1.10919" stroke-miterlimit="10"/>
<path d="M417.376 211.52C417.376 211.52 421.736 201.087 422.055 200.325C422.375 199.563 423.436 198.336 424.352 198.183C425.267 198.031 432.301 196.506 432.912 196.354C433.522 196.201 433.987 196.964 432.301 198.031C430.615 199.098 426.488 199.563 426.488 199.563L425.87 204.144C425.87 204.144 430.005 200.935 430.005 202.619C430.005 204.304 426.946 205.364 426.488 205.523C426.03 205.683 424.809 207.636 424.373 207.963C423.672 208.283 422.942 208.539 422.193 208.725C422.193 208.725 421.888 210.562 421.278 211.172C420.667 211.781 417.913 213.771 417.913 213.771L417.376 211.52Z" fill="white" stroke="#263238" stroke-width="1.10919" stroke-miterlimit="10"/>
<path d="M422.055 200.325C422.055 200.325 423.828 198.147 424.09 198.147C425.341 199.03 426.537 199.988 427.672 201.015C427.89 201.225 426.524 203.447 426.314 203.803C426.103 204.159 426.023 204.449 425.449 204.238C425.06 204.078 424.698 203.86 424.373 203.592" fill="white"/>
<path d="M422.055 200.325C422.055 200.325 423.828 198.147 424.09 198.147C425.341 199.03 426.537 199.988 427.672 201.015C427.89 201.225 426.524 203.447 426.314 203.803C426.103 204.159 426.023 204.449 425.449 204.238C425.06 204.078 424.698 203.86 424.373 203.592" stroke="#263238" stroke-width="1.10919" stroke-miterlimit="10"/>
<path d="M421.583 202.104C421.583 202.104 423.516 199.926 423.799 199.926C424.083 199.926 426.524 201.857 426.524 202.213C426.524 202.569 426.096 204.725 425.739 204.797C425.234 204.8 424.73 204.751 424.235 204.652" fill="white"/>
<path d="M421.583 202.104C421.583 202.104 423.516 199.926 423.799 199.926C424.083 199.926 426.524 201.857 426.524 202.213C426.524 202.569 426.096 204.725 425.739 204.797C425.234 204.8 424.73 204.751 424.235 204.652" stroke="#263238" stroke-width="1.10919" stroke-miterlimit="10"/>
<path d="M421.51 204.18C422.026 203.616 422.604 203.112 423.232 202.677C423.799 202.387 425.093 203.607 425.878 204.129C426.662 204.652 427.6 204.95 427.171 205.451C426.742 205.952 425.093 205.24 424.737 205.24C424.339 205.175 423.952 205.052 423.589 204.877L422.658 207.672" fill="white"/>
<path d="M421.51 204.18C422.026 203.616 422.604 203.112 423.232 202.677C423.799 202.387 425.093 203.607 425.878 204.129C426.662 204.652 427.6 204.95 427.171 205.451C426.742 205.952 425.093 205.24 424.737 205.24C424.339 205.175 423.952 205.052 423.589 204.877L422.658 207.672" stroke="#263238" stroke-width="1.10919" stroke-miterlimit="10"/>
<path d="M412.274 214.685L417.623 210.409L420.071 214.99L415.479 219.724C415.479 219.724 412.274 219.114 412.274 214.685Z" fill="#85CFF9" stroke="#263238" stroke-width="1.10919" stroke-miterlimit="10"/>
<path d="M96.6467 340.53C94.4543 339.842 92.4039 338.765 90.5935 337.35C88.1737 335.267 80.5292 329.604 78.3201 328.152C76.1111 326.7 76.3799 333.408 77.1284 336.864C77.7337 339.849 79.0028 342.66 80.8417 345.09C82.2369 346.745 91.342 350.172 92.3593 350.404C93.3767 350.636 97.446 350.709 98.2744 350.317C99.1028 349.925 97.3733 343.398 96.6467 340.53Z" fill="white" stroke="#263238" stroke-width="1.10919" stroke-miterlimit="10"/>
<path d="M81.3067 342.266C79.1776 339.536 77.6734 331.165 77.608 327.956C76.1547 328.297 76.4744 333.837 77.1284 336.886C77.7337 339.871 79.0028 342.682 80.8417 345.111C82.2369 346.767 91.342 350.193 92.3593 350.426C93.7345 350.607 95.1236 350.66 96.5086 350.585C91.56 348.85 83.4504 345.01 81.3067 342.266Z" fill="white" stroke="#263238" stroke-width="1.10919" stroke-miterlimit="10"/>
<path d="M195.982 290.785C195.982 290.785 193.468 295.438 192.196 298.139C190.924 300.84 189.834 302.786 189.834 302.786C189.834 302.786 188.621 300.419 187.698 300.862C187.054 301.151 186.382 301.372 185.692 301.522C185.692 301.522 184.544 297.413 182.786 295.257C181.027 293.101 179.538 294.139 177.91 292.701C175.606 290.669 174.676 290.059 173.136 288.825C171.239 287.307 168.34 293.732 168.289 296.157C168.238 298.582 180.671 313.821 183.774 317.988C186.877 322.155 190.009 324.776 192.029 322.242C194.049 319.709 195.008 317.298 196.534 309.174C198.06 301.05 201.788 288.629 195.982 290.785Z" fill="#85CFF9" stroke="#263238" stroke-width="1.10919" stroke-miterlimit="10"/>
<path d="M173.121 288.825L167.475 284.592C166.864 283.394 165.636 280.904 164.968 279.169C164.052 276.809 163.653 275.306 161.553 273.666C159.452 272.025 154.482 270.036 153.85 269.36C153.218 268.685 152.963 271.263 154.111 272.461C154.623 273.081 155.269 273.577 156.001 273.913C156.001 273.913 147.811 272.896 147.797 273.535C147.782 274.174 154.758 282.973 157.28 285.013C158.333 285.884 160.688 286.705 162.025 287.663C162.685 288.136 163.293 288.676 163.842 289.275C163.529 289.449 163.427 289.442 163.391 289.42C163.682 289.826 168.02 296.012 169.35 295.743C170.679 295.475 175.127 295.075 173.121 288.825Z" fill="white" stroke="#263238" stroke-width="1.10919" stroke-miterlimit="10"/>
<path d="M148.027 263.776L147.144 264.377L158.488 281.016L159.371 280.415L148.027 263.776Z" fill="#263238" stroke="#263238" stroke-width="1.10919" stroke-miterlimit="10"/>
<path d="M150.34 269.092C150.34 269.092 145.98 273.796 146.503 274.232C147.026 274.668 148.683 276.301 149.134 276.098C149.584 275.895 151.881 272.105 151.997 271.676C152.113 271.248 150.34 269.092 150.34 269.092Z" fill="white" stroke="#263238" stroke-width="1.10919" stroke-miterlimit="10"/>
<path d="M152.52 272.25C152.52 272.25 149.221 277.085 149.533 277.521C149.846 277.956 154.017 282.828 154.54 283.155C155.063 283.481 158.006 280.664 158.006 280.664L152.52 272.25Z" fill="white" stroke="#263238" stroke-width="1.10919" stroke-miterlimit="10"/>
<path d="M154.279 275.023C154.279 275.023 151.198 279.866 151.517 279.873" stroke="#263238" stroke-width="1.10919" stroke-miterlimit="10"/>
<path d="M156.342 278.37L153.501 281.724" stroke="#263238" stroke-width="1.10919" stroke-miterlimit="10"/>
<path d="M156.001 273.891L158.646 275.11C158.646 275.11 157.985 281.601 161.553 283.822" fill="white"/>
<path d="M156.001 273.891L158.646 275.11C158.646 275.11 157.985 281.601 161.553 283.822" stroke="#263238" stroke-width="1.10919" stroke-miterlimit="10"/>
<path d="M163.391 289.398C163.391 289.398 163.376 289.383 163.391 289.398V289.398Z" fill="white" stroke="#263238" stroke-width="1.10919" stroke-miterlimit="10"/>
<path d="M193.606 324.704C193.606 324.704 167.896 294.03 165.106 290.734C162.316 287.438 156.023 286.073 152.331 287.22C148.64 288.367 144.149 298.676 143.255 302.938C142.361 307.2 135.058 325.596 133.808 328.014C132.559 330.432 130.655 333.045 130.633 334.069C130.611 335.093 130.597 335.898 130.597 335.898L129.318 338.723C129.318 338.723 135.218 339.449 137.674 339.093C140.13 338.737 143.647 335.949 144.287 334.534C144.926 333.118 146.729 329.633 148.901 328.108C151.997 325.93 157.381 311.36 157.381 311.36L167.555 333.568C167.555 333.568 187.683 336.407 192.182 335.884C196.68 335.361 193.606 324.704 193.606 324.704Z" fill="#263238" stroke="#263238" stroke-width="1.10919" stroke-miterlimit="10"/>
<path d="M192.632 322.242C192.632 322.242 189.493 326.25 189.478 327.07V327.883L172.3 329.604C172.3 329.604 154.562 329.256 151.902 329.815C149.243 330.374 110.7 340.625 108.244 340.988C105.788 341.351 104.611 339.282 103.594 339.26C102.576 339.238 101.566 338.403 100.142 338.374C98.7177 338.345 97.4533 340.363 96.6321 340.552C96.1034 340.747 95.5512 340.872 94.9899 340.922C94.3795 340.922 94.8155 339.47 94.3795 340.922C93.9435 342.374 92.8462 346.389 93.8272 348.241C94.4598 349.393 95.347 350.386 96.4214 351.145C96.4214 351.145 129.463 351.181 134.935 351.29C140.407 351.399 157.396 349.903 159.438 349.736C161.48 349.569 191.012 351.37 195.699 351.464C200.386 351.558 215.893 351.464 218.574 349.874C221.255 348.284 224.693 339.398 224.148 335.928C223.603 332.457 195.248 322.526 195.248 322.526L192.632 322.242Z" fill="#263238" stroke="#263238" stroke-width="1.10919" stroke-miterlimit="10"/>
<path d="M191.462 319.367C191.172 320.075 191.086 320.85 191.215 321.604C191.389 323.056 223.312 338.302 224.344 337.735C225.376 337.169 226.102 331.245 226.102 331.245L191.498 317.531L191.462 319.367Z" fill="#85CFF9" stroke="#263238" stroke-width="1.10919" stroke-miterlimit="10"/>
<path d="M205.065 270.529C205.065 270.529 199.201 278.566 197.036 284.839C194.87 291.111 191.389 312.637 190.118 315.266C188.846 317.894 188.81 319.52 190.634 319.963C192.458 320.406 209.854 328.079 215.718 330.432C221.582 332.784 226.844 334.933 227.73 331.281C228.617 327.629 228.667 325.393 228.566 319.89C228.464 314.387 228.37 288.505 227.904 280.962C227.439 273.419 223.399 261.106 218.094 261.411C212.79 261.716 205.065 270.529 205.065 270.529Z" fill="#85CFF9" stroke="#263238" stroke-width="1.10919" stroke-miterlimit="10"/>
<path d="M216.176 242.244C215.551 237.816 213.429 234.2 209.803 231.935C210.376 231.295 211.153 230.873 212.002 230.741C212.851 230.609 213.72 230.774 214.461 231.209C214.461 231.209 214.948 229.481 213.538 228.879C213.124 228.718 212.675 228.665 212.235 228.723C211.794 228.781 211.375 228.95 211.017 229.213C211.017 229.213 211.257 226.897 212.826 225.772C214.396 224.646 217.455 226.251 217.455 226.251C217.455 226.251 216.801 220.247 212.913 221.328C209.026 222.41 209.542 225.684 209.542 225.684C209.542 225.684 208.815 222.969 206.504 222.73C204.193 222.49 202.413 224.385 202.413 224.385C202.413 224.385 204.382 222.686 206.453 225.626C207 226.331 207.362 227.161 207.507 228.041C207.652 228.92 207.574 229.822 207.282 230.665C206.666 230.424 206.038 230.218 205.4 230.048C199.935 228.596 193.7 230.164 191.041 232.821C188.914 233.345 186.92 234.304 185.184 235.638C182.277 238.099 184.995 241.497 185.394 241.961L185.612 243.181C185.887 245.654 186.293 248.112 186.826 250.543C187.371 252.292 188.323 252.888 188.279 253.853C188.236 254.819 186.644 258.267 187.778 259.443C188.912 260.62 189.893 260.264 189.893 260.264C189.893 260.264 194.347 269.622 196.294 268.881C198.242 268.141 201.592 264.736 201.592 264.736L205.988 267.531L214.091 258.609L212.637 254.717C212.637 254.717 217.026 248.248 216.176 242.244Z" fill="white" stroke="#263238" stroke-width="1.10919" stroke-miterlimit="10"/>
<path d="M189.006 241.823C191.36 240.705 197.384 239.326 196.353 241.134C195.321 242.941 195.088 246.107 196.411 246.463C197.733 246.818 200.538 248.706 201.497 249.367C202.457 250.027 203.677 249.577 203.677 248.575C203.677 247.573 204.738 245.599 206.882 246.637C209.026 247.675 209.156 249.679 208.611 252.002C208.321 253.343 207.521 254.519 206.381 255.283C206.381 255.283 208.938 257.338 212.877 255.371L212.623 254.703C212.623 254.703 216.983 248.219 216.154 242.215C215.529 237.787 213.407 234.171 209.781 231.906C210.354 231.266 211.131 230.844 211.981 230.712C212.83 230.58 213.698 230.745 214.439 231.18C214.439 231.18 214.926 229.452 213.516 228.85C213.102 228.689 212.654 228.636 212.213 228.694C211.772 228.752 211.353 228.921 210.995 229.184C210.995 229.184 211.235 226.868 212.804 225.742C214.374 224.617 217.433 226.222 217.433 226.222C217.433 226.222 216.779 220.218 212.892 221.299C209.004 222.381 209.52 225.655 209.52 225.655C209.52 225.655 208.793 222.94 206.482 222.701C204.172 222.461 202.391 224.356 202.391 224.356C202.391 224.356 204.36 222.657 206.431 225.597C206.978 226.302 207.34 227.132 207.485 228.012C207.63 228.891 207.552 229.793 207.26 230.636C206.644 230.395 206.016 230.189 205.378 230.019C199.913 228.567 193.678 230.135 191.019 232.792C188.892 233.316 186.898 234.275 185.162 235.609C182.255 238.07 184.973 241.468 185.373 241.932C185.394 241.976 186.652 242.941 189.006 241.823Z" fill="#263238" stroke="#263238" stroke-width="1.10919" stroke-miterlimit="10"/>
<path d="M190.837 250.514L190.794 252.692C191.514 252.882 192.269 252.899 192.997 252.74C193.725 252.581 194.405 252.251 194.979 251.777" stroke="#263238" stroke-width="1.10919" stroke-miterlimit="10"/>
<path d="M188.374 248.474C188.943 247.771 189.744 247.293 190.634 247.127C191.523 246.961 192.443 247.116 193.228 247.566" stroke="#263238" stroke-width="1.10919" stroke-miterlimit="10"/>
<path d="M192.639 260.54C192.639 260.54 195.473 260.431 197.203 257.135" stroke="#263238" stroke-width="1.10919" stroke-miterlimit="10"/>
<path d="M197.733 264.3C196.047 265.099 193.926 262.892 192.93 262.71C192.123 262.558 192.261 264.162 192.349 264.787C193.715 267.066 195.335 269.273 196.324 268.896C198.271 268.17 201.621 264.75 201.621 264.75L201.774 264.852C202.222 264.103 202.504 263.266 202.602 262.398C202.624 261.07 199.412 263.538 197.733 264.3Z" fill="#263238" stroke="#263238" stroke-width="1.10919" stroke-miterlimit="10"/>
<path d="M222.672 256.612C222.672 256.612 216.59 254.659 213.051 258.463C209.513 262.268 199.906 273.484 201.948 273.528C203.99 273.571 207.565 267.93 211.678 266.173C215.791 264.417 218.218 264.475 219.606 267.35C220.994 270.225 225.717 288.658 227.599 285.434C229.481 282.211 232.882 275.764 231.167 269.615C229.452 263.465 224.685 257.875 222.672 256.612Z" fill="white" stroke="#263238" stroke-width="1.10919" stroke-miterlimit="10"/>
<path d="M207.151 278.515C207.151 278.515 202.064 287.38 201.577 292.259C201.09 297.137 199.455 317.487 199.455 317.487C199.455 317.487 197.443 316.224 196.396 317.422C195.35 318.62 194.689 321.262 194.689 321.262C194.689 321.262 191.855 320.391 191.215 321.603C190.849 322.307 190.426 322.98 189.951 323.614L172.3 329.604C172.3 329.604 200.204 331.172 202.449 331.012C203.82 330.902 205.119 330.355 206.155 329.452C206.155 329.452 207.957 330.904 211.039 329.749C214.12 328.595 215.173 327.186 216.031 324.754C216.888 322.322 220.943 292.665 220.943 292.665" fill="#85CFF9"/>
<path d="M207.151 278.515C207.151 278.515 202.064 287.38 201.577 292.259C201.09 297.137 199.455 317.487 199.455 317.487C199.455 317.487 197.443 316.224 196.396 317.422C195.35 318.62 194.689 321.262 194.689 321.262C194.689 321.262 191.855 320.391 191.215 321.603C190.849 322.307 190.426 322.98 189.951 323.614L172.3 329.604C172.3 329.604 200.204 331.172 202.449 331.012C203.82 330.902 205.119 330.355 206.155 329.452C206.155 329.452 207.957 330.904 211.039 329.749C214.12 328.595 215.173 327.186 216.031 324.754C216.888 322.322 220.943 292.665 220.943 292.665" stroke="#263238" stroke-width="1.10919" stroke-miterlimit="10"/>
<path d="M172.3 329.604C172.3 329.604 180.78 330.083 188.766 330.483C187.611 328.602 188.149 325.887 188.766 324.036L172.3 329.604Z" fill="white" stroke="#263238" stroke-width="1.10919" stroke-miterlimit="10"/>
<path d="M71.94 350.585H450.017" stroke="#263238" stroke-width="1.10919" stroke-miterlimit="10"/>
</svg>
