<svg width="24" height="30" viewBox="0 0 24 30" fill="none" xmlns="http://www.w3.org/2000/svg">
<path d="M1.72919 24.9167C1.42224 24.9167 1.16842 24.8164 0.967729 24.6157C0.767034 24.415 0.666687 24.1612 0.666687 23.8542C0.666687 23.5473 0.767034 23.2934 0.967729 23.0928C1.16842 22.8921 1.42224 22.7917 1.72919 22.7917H3.64169V11.9542C3.64169 10.0181 4.22606 8.26497 5.39481 6.69483C6.56356 5.12469 8.10419 4.13893 10.0167 3.73754V2.71046C10.0167 2.1674 10.2115 1.71879 10.6011 1.36462C10.9906 1.01046 11.457 0.833374 12 0.833374C12.5431 0.833374 13.0094 1.01046 13.399 1.36462C13.7886 1.71879 13.9834 2.1674 13.9834 2.71046V3.73754C15.8959 4.13893 17.4424 5.12469 18.6229 6.69483C19.8035 8.26497 20.3938 10.0181 20.3938 11.9542V22.7917H22.2709C22.5778 22.7917 22.8316 22.8921 23.0323 23.0928C23.233 23.2934 23.3334 23.5473 23.3334 23.8542C23.3334 24.1612 23.233 24.415 23.0323 24.6157C22.8316 24.8164 22.5778 24.9167 22.2709 24.9167H1.72919ZM12 29.1667C11.2445 29.1667 10.5834 28.8893 10.0167 28.3344C9.45002 27.7796 9.16669 27.1125 9.16669 26.3334H14.8334C14.8334 27.1125 14.5559 27.7796 14.0011 28.3344C13.4462 28.8893 12.7792 29.1667 12 29.1667ZM5.76669 22.7917H18.2688V11.9542C18.2688 10.1834 17.6726 8.68997 16.4802 7.474C15.2879 6.25803 13.8181 5.65004 12.0709 5.65004C10.3 5.65004 8.80662 6.25803 7.59064 7.474C6.37467 8.68997 5.76669 10.1834 5.76669 11.9542V22.7917Z" fill="#85CFF9"/>
</svg>
