<svg width="110" height="31" viewBox="0 0 110 31" fill="none" xmlns="http://www.w3.org/2000/svg">
<path d="M47.5141 21.8833V10.3668H49.9265V19.8758H54.8182V21.8833H47.5141Z" fill="black"/>
<path d="M60.2712 22.052C59.3909 22.052 58.6332 21.8721 57.998 21.5122C57.3666 21.1485 56.88 20.635 56.5383 19.9714C56.1966 19.3041 56.0258 18.515 56.0258 17.604C56.0258 16.7155 56.1966 15.9358 56.5383 15.2647C56.88 14.5937 57.361 14.0707 57.9813 13.6958C58.6053 13.3209 59.337 13.1335 60.1764 13.1335C60.741 13.1335 61.2666 13.2253 61.7531 13.409C62.2434 13.589 62.6706 13.8608 63.0346 14.2244C63.4023 14.588 63.6883 15.0454 63.8926 15.5965C64.0968 16.1438 64.199 16.7849 64.199 17.5197V18.1776H56.9729V16.693H61.9649C61.9649 16.3481 61.8906 16.0426 61.742 15.7764C61.5934 15.5103 61.3873 15.3022 61.1236 15.1523C60.8636 14.9985 60.5609 14.9217 60.2154 14.9217C59.8552 14.9217 59.5357 15.006 59.2572 15.1747C58.9823 15.3397 58.7669 15.5627 58.6109 15.8439C58.4549 16.1213 58.375 16.4306 58.3713 16.7718V18.1832C58.3713 18.6106 58.4493 18.9798 58.6053 19.291C58.765 19.6021 58.9897 19.8421 59.2794 20.0108C59.5692 20.1795 59.9127 20.2638 60.3102 20.2638C60.5739 20.2638 60.8153 20.2263 61.0344 20.1514C61.2536 20.0764 61.4411 19.9639 61.5971 19.814C61.7531 19.664 61.872 19.4803 61.9537 19.2629L64.1488 19.4091C64.0374 19.9414 63.809 20.4063 63.4636 20.8036C63.1219 21.1973 62.6799 21.5047 62.1376 21.7259C61.599 21.9433 60.9769 22.052 60.2712 22.052Z" fill="black"/>
<path d="M67.578 13.246L69.1492 16.2657L70.7593 13.246H73.194L70.7147 17.5646L73.2609 21.8833H70.8373L69.1492 18.8974L67.4889 21.8833H65.0375L67.578 17.5646L65.1266 13.246H67.578Z" fill="black"/>
<path d="M84.7156 14.3987H82.2754C82.2308 14.0801 82.1398 13.797 82.0024 13.5496C81.8649 13.2984 81.6885 13.0848 81.4731 12.9086C81.2577 12.7324 81.0088 12.5974 80.7265 12.5037C80.4479 12.41 80.1452 12.3631 79.8184 12.3631C79.2278 12.3631 78.7134 12.5112 78.2751 12.8073C77.8368 13.0998 77.497 13.5271 77.2555 14.0894C77.0141 14.648 76.8934 15.3266 76.8934 16.1251C76.8934 16.9461 77.0141 17.6359 77.2555 18.1944C77.5007 18.753 77.8424 19.1748 78.2807 19.4597C78.719 19.7446 79.226 19.8871 79.8017 19.8871C80.1248 19.8871 80.4238 19.8439 80.6987 19.7577C80.9772 19.6715 81.2242 19.5459 81.4397 19.381C81.6551 19.2123 81.8334 19.0079 81.9745 18.768C82.1194 18.5281 82.2197 18.2544 82.2754 17.947L84.7156 17.9583C84.6525 18.4869 84.4946 18.9967 84.2421 19.4878C83.9932 19.9752 83.6571 20.4119 83.2336 20.798C82.8139 21.1804 82.3125 21.4841 81.7294 21.709C81.1499 21.9302 80.4944 22.0408 79.7627 22.0408C78.745 22.0408 77.835 21.8083 77.0327 21.3435C76.2341 20.8786 75.6027 20.2057 75.1384 19.3247C74.6778 18.4437 74.4476 17.3772 74.4476 16.1251C74.4476 14.8692 74.6816 13.8008 75.1496 12.9198C75.6176 12.0388 76.2527 11.3678 77.055 10.9067C77.8573 10.4418 78.7598 10.2094 79.7627 10.2094C80.4238 10.2094 81.0367 10.3031 81.6012 10.4905C82.1695 10.678 82.6728 10.9517 83.1111 11.3115C83.5494 11.6677 83.9059 12.1044 84.1808 12.6218C84.4594 13.1391 84.6376 13.7314 84.7156 14.3987Z" fill="black"/>
<path d="M88.7744 16.8898V21.8833H86.401V10.3668H88.7075V14.7699H88.8078C89.001 14.26 89.313 13.8608 89.7438 13.5721C90.1747 13.2797 90.7151 13.1335 91.3651 13.1335C91.9594 13.1335 92.4775 13.2647 92.9195 13.5271C93.3652 13.7858 93.7106 14.1588 93.9558 14.6462C94.2046 15.1298 94.3272 15.709 94.3235 16.3837V21.8833H91.9501V16.8111C91.9538 16.2788 91.8201 15.8645 91.5489 15.5684C91.2815 15.2722 90.9064 15.1241 90.4235 15.1241C90.1004 15.1241 89.8144 15.1935 89.5655 15.3322C89.3204 15.4709 89.1272 15.6733 88.9861 15.9395C88.8487 16.2019 88.7781 16.5187 88.7744 16.8898Z" fill="black"/>
<path d="M98.6316 22.0464C98.0856 22.0464 97.599 21.9508 97.1719 21.7596C96.7447 21.5647 96.4067 21.2779 96.1579 20.8992C95.9127 20.5169 95.7902 20.0408 95.7902 19.4709C95.7902 18.9911 95.8774 18.5881 96.052 18.2619C96.2266 17.9358 96.4643 17.6734 96.7652 17.4747C97.066 17.276 97.4077 17.126 97.7903 17.0248C98.1766 16.9236 98.5814 16.8524 99.0049 16.8111C99.5026 16.7586 99.9037 16.7099 100.208 16.6649C100.513 16.6162 100.734 16.545 100.871 16.4512C101.009 16.3575 101.077 16.2188 101.077 16.0351V16.0014C101.077 15.6452 100.966 15.3697 100.743 15.1747C100.524 14.9798 100.212 14.8823 99.8071 14.8823C99.38 14.8823 99.0401 14.9779 98.7876 15.1691C98.535 15.3566 98.3679 15.5927 98.2861 15.8777L96.091 15.6977C96.2025 15.1729 96.4216 14.7193 96.7484 14.3369C97.0753 13.9507 97.4969 13.6546 98.0132 13.4484C98.5331 13.2385 99.1348 13.1335 99.8183 13.1335C100.294 13.1335 100.749 13.1897 101.183 13.3022C101.622 13.4147 102.01 13.589 102.348 13.8252C102.689 14.0613 102.959 14.365 103.156 14.7361C103.352 15.1035 103.451 15.544 103.451 16.0576V21.8833H101.2V20.6856H101.133C100.996 20.9555 100.812 21.1935 100.582 21.3997C100.351 21.6022 100.075 21.7615 99.7514 21.8777C99.4283 21.9902 99.055 22.0464 98.6316 22.0464ZM99.3113 20.3932C99.6604 20.3932 99.9687 20.3238 100.236 20.1851C100.504 20.0426 100.713 19.8514 100.866 19.6115C101.018 19.3716 101.094 19.0998 101.094 18.7961V17.8795C101.02 17.9283 100.918 17.9733 100.788 18.0145C100.661 18.052 100.518 18.0876 100.359 18.1213C100.199 18.1513 100.039 18.1795 99.8796 18.2057C99.7198 18.2282 99.575 18.2488 99.445 18.2675C99.1664 18.3088 98.9231 18.3744 98.7151 18.4644C98.5071 18.5543 98.3456 18.6762 98.2304 18.8299C98.1153 18.9798 98.0577 19.1673 98.0577 19.3922C98.0577 19.7184 98.1747 19.9677 98.4087 20.1401C98.6464 20.3088 98.9473 20.3932 99.3113 20.3932Z" fill="black"/>
<path d="M109.844 13.246V15.0454H104.69V13.246H109.844ZM105.86 11.1766H108.234V19.2291C108.234 19.4503 108.267 19.6228 108.334 19.7465C108.401 19.8664 108.494 19.9508 108.613 19.9995C108.735 20.0483 108.876 20.0726 109.036 20.0726C109.148 20.0726 109.259 20.0633 109.37 20.0445C109.482 20.022 109.567 20.0051 109.627 19.9939L110 21.7765C109.881 21.814 109.714 21.8571 109.499 21.9058C109.283 21.9583 109.021 21.9902 108.713 22.0014C108.141 22.0239 107.64 21.9471 107.209 21.7709C106.782 21.5947 106.449 21.321 106.211 20.9499C105.974 20.5787 105.857 20.1101 105.86 19.544V11.1766Z" fill="black"/>
<path d="M0 22.4826V1.67424C0 1.30219 0.171145 0.930133 0.513435 0.55808C0.855724 0.186026 1.21118 0 1.5798 0H22.0777C22.4726 0 22.8413 0.179383 23.1835 0.538148C23.5258 0.896914 23.697 1.27561 23.697 1.67424V15.8654C23.697 16.2375 23.5258 16.6095 23.1835 16.9816C22.8413 17.3536 22.4726 17.5396 22.0777 17.5396H6.3192L1.02687 22.8813C0.84256 23.0673 0.625337 23.1138 0.375202 23.0208C0.125067 22.9278 0 22.7484 0 22.4826ZM7.93849 25.5122C7.56987 25.5122 7.20783 25.3262 6.85238 24.9541C6.49692 24.5821 6.3192 24.21 6.3192 23.838V19.9314H26.0667V6.37805H30.0162C30.3848 6.37805 30.7403 6.56408 31.0825 6.93613C31.4248 7.30819 31.596 7.69353 31.596 8.09216V30.4153C31.596 30.6811 31.4709 30.8605 31.2208 30.9535C30.9706 31.0465 30.7534 31 30.5691 30.814L25.3163 25.5122H7.93849ZM21.3273 2.39177H2.3697V15.1479H21.3273V2.39177Z" fill="#B185F9"/>
</svg>
