<svg width="30" height="25" viewBox="0 0 30 25" fill="none" xmlns="http://www.w3.org/2000/svg">
<path d="M0.875 23.6719V1.32814C0.875 0.894806 1.05781 0.563035 1.42344 0.332826C1.78906 0.102618 2.175 0.0687637 2.58125 0.231264L29.0688 11.3625C29.5563 11.5792 29.8 11.9583 29.8 12.5C29.8 13.0417 29.5563 13.4208 29.0688 13.6375L2.58125 24.7688C2.175 24.9313 1.78906 24.8974 1.42344 24.6672C1.05781 24.437 0.875 24.1052 0.875 23.6719ZM3.3125 21.7219L25.4125 12.5L3.3125 3.15626V9.98126L13.1438 12.5L3.3125 14.9375V21.7219ZM3.3125 12.5V3.15626V21.7219V12.5Z" fill="#FFFDFD"/>
</svg>
